# xmcd
#
# Track frame offsets:
#	150
#	18870
#	33999
#	54032
#	70760
#	84081
#	103297
#	121575
#	138286
#	155616
#	170734
#	186679
#	199185
#	215204
#	229246
#
# Disc length: 3191 seconds
#
# Revision: 1
# Processed by: cddbd v1.5.2PL0 Copyright (c) Steve Scherf et al.
# Submitted via: audiograbber 1.83.01
#
DISCID=ce0c750f
DTITLE=Various Artist - CB 60065
DYEAR=1900
DGENRE=COUNTRY
TTITLE0=TOBY KEITH - DREAM WALKIN'
TTITLE1=TRACE ADKINS - LONELY WON'T LEAVE ME ALONE
TTITLE2=MILA MASON - CLOSER TO HEAVEN
TTITLE3=JAMES BONAMY - LITTLE BLUE DOT
TTITLE4=GARTH BROOKS - SHE'S GONNA MAKE IT
TTITLE5=PATTY LOVELESS - TO HAVE YOU BACK AGAIN
TTITLE6=DELBERT MCCLINTON - SENDING ME ANGELS
TTITLE7=JOHN ANDERSON - TAKING THE COUNTRY BACK
TTITLE8=SHANIA TWAIN - YOU'RE STILL THE ONE
TTITLE9=JEWEL AKENS - BETTER THAN IT USED TO BE
TTITLE10=PAUL BRANDT - WHAT'S COME OVER YOU
TTITLE11=SHERRIE AUSTIN - PUT YOUR HEART INTO IT
TTITLE12=LONESTAR - SAY WHEN
TTITLE13=CACTUS CHOIR - STEP RIGHT UP
TTITLE14=SARA EVANS - SHAME ABOUT THAT
EXTD=
EXTT0=
EXTT1=
EXTT2=
EXTT3=
EXTT4=
EXTT5=
EXTT6=
EXTT7=
EXTT8=
EXTT9=
EXTT10=
EXTT11=
EXTT12=
EXTT13=
EXTT14=
PLAYORDER=
